<svg xmlns="http://www.w3.org/2000/svg" width="1024" height="1024" viewBox="0 0 1024 1024">
<defs>
<linearGradient id="g" x1="0" y1="0" x2="0.25" y2="1"><stop offset="0" stop-color="#5b8cff"></stop><stop offset="0.52" stop-color="#2f6df0"></stop><stop offset="1" stop-color="#1c3fb0"></stop></linearGradient>
<radialGradient id="gr" cx="0.5" cy="0.04" r="0.95"><stop offset="0" stop-color="#fff" stop-opacity="0.28"></stop><stop offset="0.5" stop-color="#fff" stop-opacity="0"></stop></radialGradient>
<clipPath id="cp"><path d="M1024.00 512.00L1023.92 617.05L1023.69 653.98L1023.31 681.31L1022.78 703.80L1022.09 723.25L1021.25 740.55L1020.25 756.23L1019.11 770.64L1017.80 784.00L1016.34 796.48L1014.72 808.21L1012.95 819.27L1011.02 829.76L1008.93 839.72L1006.68 849.21L1004.26 858.26L1001.69 866.92L998.94 875.21L996.04 883.16L992.96 890.78L989.71 898.10L986.30 905.13L982.70 911.88L978.93 918.38L974.98 924.62L970.84 930.62L966.52 936.39L962.00 941.94L957.29 947.26L952.38 952.38L947.26 957.29L941.94 962.00L936.39 966.52L930.62 970.84L924.62 974.98L918.38 978.93L911.88 982.70L905.13 986.30L898.10 989.71L890.78 992.96L883.16 996.04L875.21 998.94L866.92 1001.69L858.26 1004.26L849.21 1006.68L839.72 1008.93L829.76 1011.02L819.27 1012.95L808.21 1014.72L796.48 1016.34L784.00 1017.80L770.64 1019.11L756.23 1020.25L740.55 1021.25L723.25 1022.09L703.80 1022.78L681.31 1023.31L653.98 1023.69L617.05 1023.92L512.00 1024.00L406.95 1023.92L370.02 1023.69L342.69 1023.31L320.20 1022.78L300.75 1022.09L283.45 1021.25L267.77 1020.25L253.36 1019.11L240.00 1017.80L227.52 1016.34L215.79 1014.72L204.73 1012.95L194.24 1011.02L184.28 1008.93L174.79 1006.68L165.74 1004.26L157.08 1001.69L148.79 998.94L140.84 996.04L133.22 992.96L125.90 989.71L118.87 986.30L112.12 982.70L105.62 978.93L99.38 974.98L93.38 970.84L87.61 966.52L82.06 962.00L76.74 957.29L71.62 952.38L66.71 947.26L62.00 941.94L57.48 936.39L53.16 930.62L49.02 924.62L45.07 918.38L41.30 911.88L37.70 905.13L34.29 898.10L31.04 890.78L27.96 883.16L25.06 875.21L22.31 866.92L19.74 858.26L17.32 849.21L15.07 839.72L12.98 829.76L11.05 819.27L9.28 808.21L7.66 796.48L6.20 784.00L4.89 770.64L3.75 756.23L2.75 740.55L1.91 723.25L1.22 703.80L0.69 681.31L0.31 653.98L0.08 617.05L0.00 512.00L0.08 406.95L0.31 370.02L0.69 342.69L1.22 320.20L1.91 300.75L2.75 283.45L3.75 267.77L4.89 253.36L6.20 240.00L7.66 227.52L9.28 215.79L11.05 204.73L12.98 194.24L15.07 184.28L17.32 174.79L19.74 165.74L22.31 157.08L25.06 148.79L27.96 140.84L31.04 133.22L34.29 125.90L37.70 118.87L41.30 112.12L45.07 105.62L49.02 99.38L53.16 93.38L57.48 87.61L62.00 82.06L66.71 76.74L71.62 71.62L76.74 66.71L82.06 62.00L87.61 57.48L93.38 53.16L99.38 49.02L105.62 45.07L112.12 41.30L118.87 37.70L125.90 34.29L133.22 31.04L140.84 27.96L148.79 25.06L157.08 22.31L165.74 19.74L174.79 17.32L184.28 15.07L194.24 12.98L204.73 11.05L215.79 9.28L227.52 7.66L240.00 6.20L253.36 4.89L267.77 3.75L283.45 2.75L300.75 1.91L320.20 1.22L342.69 0.69L370.02 0.31L406.95 0.08L512.00 0.00L617.05 0.08L653.98 0.31L681.31 0.69L703.80 1.22L723.25 1.91L740.55 2.75L756.23 3.75L770.64 4.89L784.00 6.20L796.48 7.66L808.21 9.28L819.27 11.05L829.76 12.98L839.72 15.07L849.21 17.32L858.26 19.74L866.92 22.31L875.21 25.06L883.16 27.96L890.78 31.04L898.10 34.29L905.13 37.70L911.88 41.30L918.38 45.07L924.62 49.02L930.62 53.16L936.39 57.48L941.94 62.00L947.26 66.71L952.38 71.62L957.29 76.74L962.00 82.06L966.52 87.61L970.84 93.38L974.98 99.38L978.93 105.62L982.70 112.12L986.30 118.87L989.71 125.90L992.96 133.22L996.04 140.84L998.94 148.79L1001.69 157.08L1004.26 165.74L1006.68 174.79L1008.93 184.28L1011.02 194.24L1012.95 204.73L1014.72 215.79L1016.34 227.52L1017.80 240.00L1019.11 253.36L1020.25 267.77L1021.25 283.45L1022.09 300.75L1022.78 320.20L1023.31 342.69L1023.69 370.02L1023.92 406.95L1024.00 512.00Z"></path></clipPath></defs>
<path d="M1024.00 512.00L1023.92 617.05L1023.69 653.98L1023.31 681.31L1022.78 703.80L1022.09 723.25L1021.25 740.55L1020.25 756.23L1019.11 770.64L1017.80 784.00L1016.34 796.48L1014.72 808.21L1012.95 819.27L1011.02 829.76L1008.93 839.72L1006.68 849.21L1004.26 858.26L1001.69 866.92L998.94 875.21L996.04 883.16L992.96 890.78L989.71 898.10L986.30 905.13L982.70 911.88L978.93 918.38L974.98 924.62L970.84 930.62L966.52 936.39L962.00 941.94L957.29 947.26L952.38 952.38L947.26 957.29L941.94 962.00L936.39 966.52L930.62 970.84L924.62 974.98L918.38 978.93L911.88 982.70L905.13 986.30L898.10 989.71L890.78 992.96L883.16 996.04L875.21 998.94L866.92 1001.69L858.26 1004.26L849.21 1006.68L839.72 1008.93L829.76 1011.02L819.27 1012.95L808.21 1014.72L796.48 1016.34L784.00 1017.80L770.64 1019.11L756.23 1020.25L740.55 1021.25L723.25 1022.09L703.80 1022.78L681.31 1023.31L653.98 1023.69L617.05 1023.92L512.00 1024.00L406.95 1023.92L370.02 1023.69L342.69 1023.31L320.20 1022.78L300.75 1022.09L283.45 1021.25L267.77 1020.25L253.36 1019.11L240.00 1017.80L227.52 1016.34L215.79 1014.72L204.73 1012.95L194.24 1011.02L184.28 1008.93L174.79 1006.68L165.74 1004.26L157.08 1001.69L148.79 998.94L140.84 996.04L133.22 992.96L125.90 989.71L118.87 986.30L112.12 982.70L105.62 978.93L99.38 974.98L93.38 970.84L87.61 966.52L82.06 962.00L76.74 957.29L71.62 952.38L66.71 947.26L62.00 941.94L57.48 936.39L53.16 930.62L49.02 924.62L45.07 918.38L41.30 911.88L37.70 905.13L34.29 898.10L31.04 890.78L27.96 883.16L25.06 875.21L22.31 866.92L19.74 858.26L17.32 849.21L15.07 839.72L12.98 829.76L11.05 819.27L9.28 808.21L7.66 796.48L6.20 784.00L4.89 770.64L3.75 756.23L2.75 740.55L1.91 723.25L1.22 703.80L0.69 681.31L0.31 653.98L0.08 617.05L0.00 512.00L0.08 406.95L0.31 370.02L0.69 342.69L1.22 320.20L1.91 300.75L2.75 283.45L3.75 267.77L4.89 253.36L6.20 240.00L7.66 227.52L9.28 215.79L11.05 204.73L12.98 194.24L15.07 184.28L17.32 174.79L19.74 165.74L22.31 157.08L25.06 148.79L27.96 140.84L31.04 133.22L34.29 125.90L37.70 118.87L41.30 112.12L45.07 105.62L49.02 99.38L53.16 93.38L57.48 87.61L62.00 82.06L66.71 76.74L71.62 71.62L76.74 66.71L82.06 62.00L87.61 57.48L93.38 53.16L99.38 49.02L105.62 45.07L112.12 41.30L118.87 37.70L125.90 34.29L133.22 31.04L140.84 27.96L148.79 25.06L157.08 22.31L165.74 19.74L174.79 17.32L184.28 15.07L194.24 12.98L204.73 11.05L215.79 9.28L227.52 7.66L240.00 6.20L253.36 4.89L267.77 3.75L283.45 2.75L300.75 1.91L320.20 1.22L342.69 0.69L370.02 0.31L406.95 0.08L512.00 0.00L617.05 0.08L653.98 0.31L681.31 0.69L703.80 1.22L723.25 1.91L740.55 2.75L756.23 3.75L770.64 4.89L784.00 6.20L796.48 7.66L808.21 9.28L819.27 11.05L829.76 12.98L839.72 15.07L849.21 17.32L858.26 19.74L866.92 22.31L875.21 25.06L883.16 27.96L890.78 31.04L898.10 34.29L905.13 37.70L911.88 41.30L918.38 45.07L924.62 49.02L930.62 53.16L936.39 57.48L941.94 62.00L947.26 66.71L952.38 71.62L957.29 76.74L962.00 82.06L966.52 87.61L970.84 93.38L974.98 99.38L978.93 105.62L982.70 112.12L986.30 118.87L989.71 125.90L992.96 133.22L996.04 140.84L998.94 148.79L1001.69 157.08L1004.26 165.74L1006.68 174.79L1008.93 184.28L1011.02 194.24L1012.95 204.73L1014.72 215.79L1016.34 227.52L1017.80 240.00L1019.11 253.36L1020.25 267.77L1021.25 283.45L1022.09 300.75L1022.78 320.20L1023.31 342.69L1023.69 370.02L1023.92 406.95L1024.00 512.00Z" fill="url(#g)"></path><path d="M1024.00 512.00L1023.92 617.05L1023.69 653.98L1023.31 681.31L1022.78 703.80L1022.09 723.25L1021.25 740.55L1020.25 756.23L1019.11 770.64L1017.80 784.00L1016.34 796.48L1014.72 808.21L1012.95 819.27L1011.02 829.76L1008.93 839.72L1006.68 849.21L1004.26 858.26L1001.69 866.92L998.94 875.21L996.04 883.16L992.96 890.78L989.71 898.10L986.30 905.13L982.70 911.88L978.93 918.38L974.98 924.62L970.84 930.62L966.52 936.39L962.00 941.94L957.29 947.26L952.38 952.38L947.26 957.29L941.94 962.00L936.39 966.52L930.62 970.84L924.62 974.98L918.38 978.93L911.88 982.70L905.13 986.30L898.10 989.71L890.78 992.96L883.16 996.04L875.21 998.94L866.92 1001.69L858.26 1004.26L849.21 1006.68L839.72 1008.93L829.76 1011.02L819.27 1012.95L808.21 1014.72L796.48 1016.34L784.00 1017.80L770.64 1019.11L756.23 1020.25L740.55 1021.25L723.25 1022.09L703.80 1022.78L681.31 1023.31L653.98 1023.69L617.05 1023.92L512.00 1024.00L406.95 1023.92L370.02 1023.69L342.69 1023.31L320.20 1022.78L300.75 1022.09L283.45 1021.25L267.77 1020.25L253.36 1019.11L240.00 1017.80L227.52 1016.34L215.79 1014.72L204.73 1012.95L194.24 1011.02L184.28 1008.93L174.79 1006.68L165.74 1004.26L157.08 1001.69L148.79 998.94L140.84 996.04L133.22 992.96L125.90 989.71L118.87 986.30L112.12 982.70L105.62 978.93L99.38 974.98L93.38 970.84L87.61 966.52L82.06 962.00L76.74 957.29L71.62 952.38L66.71 947.26L62.00 941.94L57.48 936.39L53.16 930.62L49.02 924.62L45.07 918.38L41.30 911.88L37.70 905.13L34.29 898.10L31.04 890.78L27.96 883.16L25.06 875.21L22.31 866.92L19.74 858.26L17.32 849.21L15.07 839.72L12.98 829.76L11.05 819.27L9.28 808.21L7.66 796.48L6.20 784.00L4.89 770.64L3.75 756.23L2.75 740.55L1.91 723.25L1.22 703.80L0.69 681.31L0.31 653.98L0.08 617.05L0.00 512.00L0.08 406.95L0.31 370.02L0.69 342.69L1.22 320.20L1.91 300.75L2.75 283.45L3.75 267.77L4.89 253.36L6.20 240.00L7.66 227.52L9.28 215.79L11.05 204.73L12.98 194.24L15.07 184.28L17.32 174.79L19.74 165.74L22.31 157.08L25.06 148.79L27.96 140.84L31.04 133.22L34.29 125.90L37.70 118.87L41.30 112.12L45.07 105.62L49.02 99.38L53.16 93.38L57.48 87.61L62.00 82.06L66.71 76.74L71.62 71.62L76.74 66.71L82.06 62.00L87.61 57.48L93.38 53.16L99.38 49.02L105.62 45.07L112.12 41.30L118.87 37.70L125.90 34.29L133.22 31.04L140.84 27.96L148.79 25.06L157.08 22.31L165.74 19.74L174.79 17.32L184.28 15.07L194.24 12.98L204.73 11.05L215.79 9.28L227.52 7.66L240.00 6.20L253.36 4.89L267.77 3.75L283.45 2.75L300.75 1.91L320.20 1.22L342.69 0.69L370.02 0.31L406.95 0.08L512.00 0.00L617.05 0.08L653.98 0.31L681.31 0.69L703.80 1.22L723.25 1.91L740.55 2.75L756.23 3.75L770.64 4.89L784.00 6.20L796.48 7.66L808.21 9.28L819.27 11.05L829.76 12.98L839.72 15.07L849.21 17.32L858.26 19.74L866.92 22.31L875.21 25.06L883.16 27.96L890.78 31.04L898.10 34.29L905.13 37.70L911.88 41.30L918.38 45.07L924.62 49.02L930.62 53.16L936.39 57.48L941.94 62.00L947.26 66.71L952.38 71.62L957.29 76.74L962.00 82.06L966.52 87.61L970.84 93.38L974.98 99.38L978.93 105.62L982.70 112.12L986.30 118.87L989.71 125.90L992.96 133.22L996.04 140.84L998.94 148.79L1001.69 157.08L1004.26 165.74L1006.68 174.79L1008.93 184.28L1011.02 194.24L1012.95 204.73L1014.72 215.79L1016.34 227.52L1017.80 240.00L1019.11 253.36L1020.25 267.77L1021.25 283.45L1022.09 300.75L1022.78 320.20L1023.31 342.69L1023.69 370.02L1023.92 406.95L1024.00 512.00Z" fill="url(#gr)"></path>
<g clip-path="url(#cp)">
  <g transform="rotate(-12 500 182)"><rect x="437" y="140" width="138" height="104" rx="20" fill="rgba(10,20,50,0.20)"></rect>
<rect x="431" y="130" width="138" height="104" rx="20" fill="#ffb43d"></rect>
<circle cx="477.92" cy="167.44" r="13.52" fill="#ffffff" opacity="0.92"></circle>
<path d="M453.08 211.12 L491.72 177.84 L516.56 196.56 L533.12 184.07999999999998 L549.68 211.12 Z" fill="#ffffff" opacity="0.92"></path></g>
  <path d="M268 392 q0-48 48-48 h152 l56 58 h160 q48 0 48 48 v40 H268 Z" fill="#a9c6ff"></path>
  <path d="M268 392 q0-48 48-48 h152 l56 58 h160 q48 0 48 48 v208 q0 48 -48 48 H316 q-48 0 -48 -48 Z" fill="#bcd2ff"></path>
  <path d="M268 482 q0-32 32-32 h424 q32 0 32 32 v156 q0 48 -48 48 H316 q-48 0 -48 -48 Z" fill="#ffffff"></path>
  <circle cx="368" cy="600" r="17" fill="#ff9db4"></circle><circle cx="656" cy="600" r="17" fill="#ff9db4"></circle>
  <circle cx="438" cy="560" r="28" fill="#1f3a78"></circle><circle cx="446" cy="552" r="9" fill="#fff"></circle>
  <path d="M562 560 q24 26 50 0" fill="none" stroke="#1f3a78" stroke-width="20" stroke-linecap="round"></path>
  <path d="M474 602 q38 40 76 0" fill="none" stroke="#1f3a78" stroke-width="18" stroke-linecap="round"></path>
  <polygon points="712.0,270.0 719.2,292.8 742.0,300.0 719.2,307.2 712.0,330.0 704.8,307.2 682.0,300.0 704.8,292.8 " fill="#ffe08a"></polygon><polygon points="660.0,344.0 663.8,356.2 676.0,360.0 663.8,363.8 660.0,376.0 656.2,363.8 644.0,360.0 656.2,356.2 " fill="#cfe0ff"></polygon></g>
<path d="M1024.00 512.00L1023.92 617.05L1023.69 653.98L1023.31 681.31L1022.78 703.80L1022.09 723.25L1021.25 740.55L1020.25 756.23L1019.11 770.64L1017.80 784.00L1016.34 796.48L1014.72 808.21L1012.95 819.27L1011.02 829.76L1008.93 839.72L1006.68 849.21L1004.26 858.26L1001.69 866.92L998.94 875.21L996.04 883.16L992.96 890.78L989.71 898.10L986.30 905.13L982.70 911.88L978.93 918.38L974.98 924.62L970.84 930.62L966.52 936.39L962.00 941.94L957.29 947.26L952.38 952.38L947.26 957.29L941.94 962.00L936.39 966.52L930.62 970.84L924.62 974.98L918.38 978.93L911.88 982.70L905.13 986.30L898.10 989.71L890.78 992.96L883.16 996.04L875.21 998.94L866.92 1001.69L858.26 1004.26L849.21 1006.68L839.72 1008.93L829.76 1011.02L819.27 1012.95L808.21 1014.72L796.48 1016.34L784.00 1017.80L770.64 1019.11L756.23 1020.25L740.55 1021.25L723.25 1022.09L703.80 1022.78L681.31 1023.31L653.98 1023.69L617.05 1023.92L512.00 1024.00L406.95 1023.92L370.02 1023.69L342.69 1023.31L320.20 1022.78L300.75 1022.09L283.45 1021.25L267.77 1020.25L253.36 1019.11L240.00 1017.80L227.52 1016.34L215.79 1014.72L204.73 1012.95L194.24 1011.02L184.28 1008.93L174.79 1006.68L165.74 1004.26L157.08 1001.69L148.79 998.94L140.84 996.04L133.22 992.96L125.90 989.71L118.87 986.30L112.12 982.70L105.62 978.93L99.38 974.98L93.38 970.84L87.61 966.52L82.06 962.00L76.74 957.29L71.62 952.38L66.71 947.26L62.00 941.94L57.48 936.39L53.16 930.62L49.02 924.62L45.07 918.38L41.30 911.88L37.70 905.13L34.29 898.10L31.04 890.78L27.96 883.16L25.06 875.21L22.31 866.92L19.74 858.26L17.32 849.21L15.07 839.72L12.98 829.76L11.05 819.27L9.28 808.21L7.66 796.48L6.20 784.00L4.89 770.64L3.75 756.23L2.75 740.55L1.91 723.25L1.22 703.80L0.69 681.31L0.31 653.98L0.08 617.05L0.00 512.00L0.08 406.95L0.31 370.02L0.69 342.69L1.22 320.20L1.91 300.75L2.75 283.45L3.75 267.77L4.89 253.36L6.20 240.00L7.66 227.52L9.28 215.79L11.05 204.73L12.98 194.24L15.07 184.28L17.32 174.79L19.74 165.74L22.31 157.08L25.06 148.79L27.96 140.84L31.04 133.22L34.29 125.90L37.70 118.87L41.30 112.12L45.07 105.62L49.02 99.38L53.16 93.38L57.48 87.61L62.00 82.06L66.71 76.74L71.62 71.62L76.74 66.71L82.06 62.00L87.61 57.48L93.38 53.16L99.38 49.02L105.62 45.07L112.12 41.30L118.87 37.70L125.90 34.29L133.22 31.04L140.84 27.96L148.79 25.06L157.08 22.31L165.74 19.74L174.79 17.32L184.28 15.07L194.24 12.98L204.73 11.05L215.79 9.28L227.52 7.66L240.00 6.20L253.36 4.89L267.77 3.75L283.45 2.75L300.75 1.91L320.20 1.22L342.69 0.69L370.02 0.31L406.95 0.08L512.00 0.00L617.05 0.08L653.98 0.31L681.31 0.69L703.80 1.22L723.25 1.91L740.55 2.75L756.23 3.75L770.64 4.89L784.00 6.20L796.48 7.66L808.21 9.28L819.27 11.05L829.76 12.98L839.72 15.07L849.21 17.32L858.26 19.74L866.92 22.31L875.21 25.06L883.16 27.96L890.78 31.04L898.10 34.29L905.13 37.70L911.88 41.30L918.38 45.07L924.62 49.02L930.62 53.16L936.39 57.48L941.94 62.00L947.26 66.71L952.38 71.62L957.29 76.74L962.00 82.06L966.52 87.61L970.84 93.38L974.98 99.38L978.93 105.62L982.70 112.12L986.30 118.87L989.71 125.90L992.96 133.22L996.04 140.84L998.94 148.79L1001.69 157.08L1004.26 165.74L1006.68 174.79L1008.93 184.28L1011.02 194.24L1012.95 204.73L1014.72 215.79L1016.34 227.52L1017.80 240.00L1019.11 253.36L1020.25 267.77L1021.25 283.45L1022.09 300.75L1022.78 320.20L1023.31 342.69L1023.69 370.02L1023.92 406.95L1024.00 512.00Z" fill="none" stroke="rgba(255,255,255,0.12)" stroke-width="10"></path></svg>